<?xml version="1.0" encoding="UTF-8"?>
<svg width="497.74" height="490.78" version="1.1" viewBox="0 0 497.74 490.78" xmlns="http://www.w3.org/2000/svg">
 <path d="m417.33 73.445 32.47-32.47c14.42-14.42 39.155-4.202 39.155 16.139v105.15c0 12.701-10.218 22.92-22.92 22.92h-105.15c-20.437 0-30.655-24.734-16.235-39.155l29.414-29.414c-33.138-33.138-78.978-53.671-129.59-53.671-101.23 0-183.36 82.13-183.36 183.36s82.13 183.36 183.36 183.36c38.964 0 75.063-12.128 104.76-32.852 13.847-9.6455 32.852-6.303 42.593 7.5445s6.303 32.852-7.5445 42.593c-39.728 27.599-87.955 43.834-139.81 43.834-135.04 0-244.48-109.44-244.48-244.48 0-135.04 109.44-244.48 244.48-244.48 67.518 0 128.64 27.408 172.85 71.625zm-172.85 50.615c12.701 0 22.92 10.218 22.92 22.92v99.32c0 6.112-2.3875 11.937-6.685 16.235l-68.76 68.76c-8.977 8.977-23.493 8.977-32.374 0s-8.977-23.493 0-32.374l62.075-62.075v-89.865c0-12.701 10.218-22.92 22.92-22.92z" style="fill:#646bf1"/>
 <path d="m427.4 70.339 31.887-31.887c14.162-14.162 38.452-4.1266 38.452 15.85v103.26c0 12.473-10.035 22.509-22.509 22.509h-103.26c-20.07 0-30.105-24.29-15.944-38.452l28.886-28.886c-32.544-32.544-77.561-52.707-127.27-52.707-99.413 0-180.07 80.656-180.07 180.07s80.656 180.07 180.07 180.07c38.264 0 73.715-11.911 102.88-32.262 13.599-9.4723 32.262-6.1898 41.828 7.409s6.1898 32.262-7.409 41.828c-39.015 27.104-86.376 43.048-137.3 43.048-132.61 0-240.09-107.48-240.09-240.09s107.48-240.09 240.09-240.09c66.306 0 126.33 26.916 169.75 70.339zm-169.75 49.706c12.473 0 22.509 10.035 22.509 22.509v97.537c0 6.0023-2.3446 11.723-6.565 15.944l-67.526 67.526c-8.8158 8.8158-23.071 8.8158-31.793 0-8.722-8.8158-8.8158-23.071 0-31.793l60.961-60.961v-88.252c0-12.473 10.035-22.509 22.509-22.509z" style="fill:#5abbf5"/>
</svg>
