<?xml version="1.0" standalone="no"?>
<!DOCTYPE svg PUBLIC "-//W3C//DTD SVG 20010904//EN"
 "http://www.w3.org/TR/2001/REC-SVG-20010904/DTD/svg10.dtd">
<svg version="1.0" xmlns="http://www.w3.org/2000/svg"
 width="996.000000pt" height="996.000000pt" viewBox="0 0 996.000000 996.000000"
 preserveAspectRatio="xMidYMid meet">
<metadata>
Created by potrace 1.14, written by Peter Selinger 2001-2017
</metadata>
<g transform="translate(0.000000,996.000000) scale(0.100000,-0.100000)"
fill="#000000" stroke="none">
<path d="M4878 9885 c-2 -2 -42 -6 -89 -9 -47 -4 -98 -9 -115 -10 -16 -2 -58
-7 -94 -11 -36 -4 -74 -9 -85 -11 -11 -3 -38 -6 -60 -9 -22 -2 -56 -6 -75 -9
-19 -3 -55 -8 -80 -11 -62 -7 -100 -12 -135 -19 -16 -2 -50 -8 -75 -11 -24 -4
-47 -8 -50 -10 -3 -2 -30 -6 -60 -10 -30 -4 -59 -10 -65 -13 -5 -4 -19 -7 -30
-8 -11 -1 -29 -5 -40 -7 -32 -8 -118 -28 -139 -33 -10 -2 -33 -8 -50 -13 -17
-5 -65 -19 -106 -31 -41 -12 -124 -38 -185 -58 -60 -20 -112 -36 -115 -37 -3
0 -11 -4 -17 -8 -7 -5 -13 -5 -13 0 0 4 -4 3 -8 -2 -4 -6 -25 -16 -47 -24 -63
-21 -166 -65 -304 -128 -51 -24 -97 -43 -102 -43 -5 0 -9 -3 -9 -7 0 -5 -32
-21 -70 -38 -38 -16 -70 -33 -70 -37 0 -5 -4 -8 -9 -8 -21 0 -388 -219 -431
-257 -8 -7 -46 -34 -85 -60 -38 -26 -74 -51 -80 -55 -5 -5 -20 -16 -32 -26
-12 -10 -34 -27 -49 -38 -27 -19 -127 -100 -174 -140 -180 -154 -300 -270
-438 -422 -42 -46 -82 -90 -87 -96 -6 -6 -37 -42 -70 -81 -32 -38 -63 -73 -69
-77 -6 -4 -7 -8 -3 -8 5 0 1 -7 -8 -16 -21 -21 -135 -171 -135 -178 0 -3 -11
-17 -25 -32 -14 -15 -25 -31 -25 -36 0 -5 -6 -16 -13 -23 -23 -27 -33 -41 -82
-120 -27 -44 -53 -81 -57 -83 -4 -2 -8 -8 -8 -14 0 -6 -18 -39 -40 -74 -22
-35 -37 -64 -33 -64 5 0 2 -4 -4 -8 -12 -8 -163 -300 -212 -411 -50 -113 -91
-216 -91 -228 0 -7 -4 -13 -8 -13 -5 0 -9 -6 -9 -13 0 -7 -12 -46 -27 -87 -26
-71 -30 -81 -36 -105 -2 -5 -11 -35 -22 -65 -10 -30 -30 -95 -44 -145 -30
-110 -33 -120 -39 -146 -2 -11 -6 -28 -9 -37 -5 -16 -11 -43 -21 -97 -3 -11
-9 -38 -14 -60 -11 -46 -21 -101 -24 -130 -2 -11 -5 -24 -8 -30 -3 -5 -4 -20
-3 -32 0 -13 -1 -23 -5 -23 -3 0 -6 -10 -7 -22 0 -13 -4 -52 -8 -88 -4 -36
-10 -81 -12 -100 -2 -19 -6 -49 -9 -67 -13 -82 -20 -260 -19 -503 0 -244 4
-344 19 -490 3 -30 8 -75 10 -100 2 -25 7 -61 10 -80 7 -48 16 -101 21 -127 3
-13 6 -35 8 -50 3 -16 9 -53 15 -83 6 -30 14 -69 17 -87 3 -17 19 -82 35 -145
16 -62 31 -122 33 -133 12 -54 16 -72 25 -90 5 -11 19 -56 32 -100 12 -44 26
-84 31 -89 4 -6 8 -19 8 -31 0 -12 4 -25 10 -31 5 -5 11 -18 13 -29 2 -11 11
-37 20 -59 9 -21 17 -40 17 -42 0 -1 5 -15 12 -31 6 -15 12 -30 13 -33 3 -9
18 -45 33 -80 8 -19 16 -37 17 -40 15 -43 142 -305 171 -351 13 -20 20 -40 17
-43 -4 -3 -1 -6 5 -6 7 0 12 -4 12 -10 0 -5 29 -58 65 -117 35 -60 72 -121 82
-138 10 -16 26 -38 36 -49 9 -11 17 -26 17 -33 0 -7 5 -13 10 -13 6 0 10 -7
10 -15 0 -8 3 -15 8 -15 4 0 12 -9 17 -19 29 -56 234 -322 360 -467 76 -88
350 -362 435 -436 106 -92 130 -112 216 -179 38 -30 71 -56 74 -59 3 -4 28
-21 55 -40 28 -19 52 -36 55 -40 10 -12 249 -170 258 -170 5 0 17 -9 27 -20 9
-10 20 -18 24 -17 3 1 17 -6 31 -14 56 -36 131 -79 135 -79 3 0 23 -11 45 -25
22 -14 40 -22 40 -19 0 4 8 0 18 -8 21 -18 182 -96 347 -168 17 -8 32 -14 35
-15 3 -1 23 -9 44 -18 21 -10 57 -24 80 -31 23 -8 79 -29 126 -46 47 -18 112
-40 145 -50 33 -10 81 -25 108 -33 26 -8 47 -13 47 -11 0 3 8 0 18 -5 11 -6
30 -12 43 -15 13 -3 33 -7 44 -10 47 -12 144 -35 166 -40 13 -3 35 -8 49 -11
14 -4 36 -8 50 -10 14 -2 39 -7 55 -10 47 -11 113 -22 170 -29 22 -3 49 -7 60
-10 21 -4 95 -12 185 -21 30 -2 84 -8 120 -12 147 -16 756 -7 860 12 14 2 54
7 90 10 36 3 76 7 90 10 13 2 42 7 65 10 67 10 99 15 115 20 8 2 33 7 55 10
22 2 51 7 65 11 14 3 34 7 45 9 11 2 21 4 23 5 1 2 10 3 20 4 9 1 23 5 30 9 6
5 12 6 12 3 0 -3 21 1 47 9 25 8 50 12 55 9 4 -3 8 -1 8 3 0 5 8 9 18 10 41 3
418 122 512 161 25 10 60 24 70 27 3 1 21 8 41 17 20 9 47 19 60 23 13 4 27
12 30 18 4 5 15 10 25 11 24 1 376 175 386 190 4 6 8 8 8 4 0 -7 318 182 347
207 10 8 22 15 27 14 5 0 12 3 15 8 3 5 29 25 57 46 51 37 154 143 154 158 0
5 6 9 14 9 8 0 29 12 47 27 62 52 165 163 152 163 -3 0 0 8 8 18 25 30 58 110
77 182 11 43 8 210 -5 264 -31 136 -133 282 -253 363 -48 32 -153 76 -210 88
-50 11 -200 13 -206 3 -3 -5 -9 -6 -13 -4 -10 6 -93 -16 -146 -39 -22 -9 -85
-47 -140 -84 -106 -70 -131 -86 -155 -97 -8 -4 -17 -10 -20 -13 -13 -15 -348
-186 -426 -218 -16 -7 -47 -20 -69 -29 -22 -10 -49 -19 -59 -21 -11 -2 -24 -7
-30 -12 -12 -10 -97 -36 -108 -33 -5 1 -8 -2 -8 -6 0 -8 -104 -39 -106 -31 0
2 -8 -2 -17 -10 -10 -7 -17 -10 -17 -7 0 4 -8 2 -18 -3 -11 -6 -31 -13 -45
-16 -15 -3 -39 -7 -54 -11 -15 -3 -30 -7 -34 -9 -7 -5 -76 -17 -96 -18 -7 0
-13 -4 -13 -9 0 -5 -4 -7 -8 -4 -4 3 -27 1 -50 -5 -23 -5 -59 -12 -80 -15 -20
-3 -50 -7 -67 -10 -254 -42 -680 -51 -930 -20 -16 2 -55 7 -86 10 -55 6 -75
10 -129 21 -14 3 -42 8 -64 11 -50 7 -74 12 -94 18 -9 3 -28 7 -42 10 -37 7
-183 45 -200 52 -8 4 -22 8 -30 9 -30 4 -228 75 -335 120 -60 26 -119 49 -130
53 -11 3 -24 9 -30 13 -5 5 -67 38 -138 74 -163 83 -170 88 -180 102 -4 7 -14
13 -21 13 -7 0 -32 13 -54 30 -23 16 -44 30 -47 30 -11 0 -281 200 -332 245
-6 5 -37 33 -69 60 -88 75 -262 250 -345 346 -100 116 -110 128 -139 169 -13
19 -35 46 -47 60 -13 14 -23 30 -23 37 0 6 -4 13 -9 15 -11 4 -151 216 -151
229 0 5 -3 9 -7 9 -5 0 -17 19 -28 43 -11 23 -23 44 -26 47 -16 12 -198 399
-219 465 -7 22 -17 46 -23 52 -5 7 -7 13 -3 13 4 0 0 14 -9 30 -9 17 -13 30
-9 30 4 0 1 7 -6 15 -7 8 -10 15 -7 15 3 0 -4 26 -15 58 -11 31 -22 64 -24 72
-2 8 -12 49 -24 90 -11 41 -27 109 -36 150 -8 41 -18 84 -20 95 -2 11 -6 36
-9 55 -3 19 -7 46 -9 60 -9 42 -16 105 -32 250 -10 98 -12 485 -2 498 7 8 7
12 -1 12 -7 0 -10 4 -7 8 3 5 7 44 10 88 6 76 8 96 22 194 19 132 24 160 50
275 44 194 55 238 64 250 4 6 11 29 15 53 4 23 12 42 18 42 5 0 8 3 5 6 -5 5
28 117 49 164 3 8 7 17 8 20 5 14 27 67 35 85 35 77 64 141 65 145 10 43 208
393 242 428 7 8 11 17 8 22 -3 5 -1 10 3 12 5 1 39 46 77 98 133 186 204 268
391 455 144 143 147 146 254 234 41 33 82 67 90 74 35 31 218 157 229 157 6 0
11 5 11 10 0 6 7 10 15 10 8 0 15 5 15 10 0 6 6 10 14 10 8 0 16 4 18 8 2 4
23 19 48 33 25 14 62 35 82 47 56 32 226 117 283 142 28 12 57 25 67 30 18 10
180 74 188 75 3 0 25 8 50 17 67 24 247 79 273 82 12 2 38 6 57 10 19 3 47 8
62 10 15 3 33 8 39 12 8 5 9 3 4 -6 -5 -8 -4 -11 2 -7 33 20 188 30 478 30
238 1 322 -3 440 -19 17 -3 48 -7 70 -9 58 -7 100 -13 100 -15 0 -1 24 -6 75
-14 114 -18 417 -99 493 -131 21 -8 42 -13 47 -10 6 4 10 1 10 -4 0 -6 7 -11
15 -11 8 0 23 -4 33 -10 9 -5 55 -24 102 -42 47 -18 87 -36 88 -40 2 -4 10 -8
17 -8 18 0 237 -110 345 -173 100 -59 243 -149 250 -157 3 -4 27 -22 55 -40
57 -39 57 -39 147 -114 36 -31 69 -56 71 -56 3 0 21 -15 40 -32 18 -18 68 -64
110 -103 42 -38 77 -73 77 -77 0 -4 -142 -149 -315 -322 -173 -173 -315 -319
-315 -324 0 -4 -9 -18 -20 -29 -53 -58 -86 -272 -53 -350 7 -18 10 -33 7 -33
-4 0 -1 -6 5 -13 6 -8 8 -17 4 -20 -3 -4 -2 -7 4 -7 6 0 13 -10 17 -22 6 -28
28 -57 81 -112 83 -84 146 -118 250 -134 53 -8 2221 -7 2260 1 81 16 167 53
185 78 3 4 46 27 95 53 50 25 108 63 130 84 38 35 96 115 102 137 1 6 10 30
20 55 17 42 18 110 18 1175 l0 1130 -28 67 c-30 71 -47 95 -112 159 -39 38
-140 96 -180 104 -11 2 -20 4 -20 5 0 11 -161 16 -192 6 -12 -4 -30 -9 -40
-11 -10 -2 -31 -9 -48 -16 -16 -7 -41 -14 -55 -16 -157 -22 -192 -47 -511
-365 -153 -153 -283 -278 -288 -278 -5 0 -27 17 -48 38 -40 37 -136 123 -183
162 -14 11 -34 28 -45 38 -36 32 -269 208 -311 235 -22 14 -48 33 -57 42 -10
9 -17 13 -17 8 0 -4 -4 -3 -8 3 -4 6 -29 24 -57 39 -27 16 -52 32 -55 35 -9
11 -182 110 -191 110 -5 0 -9 3 -9 8 0 4 -15 14 -32 21 -18 8 -59 30 -91 47
-31 18 -60 34 -62 34 -3 0 -55 25 -117 54 -132 63 -253 114 -268 113 -3 0 -24
10 -47 22 -23 11 -50 22 -60 24 -10 1 -22 5 -28 8 -43 26 -485 156 -565 166
-19 3 -37 8 -40 12 -3 3 -14 7 -25 8 -22 2 -52 7 -105 18 -19 4 -44 8 -55 10
-11 1 -36 5 -55 8 -19 4 -48 9 -65 11 -16 2 -30 5 -30 6 0 1 -16 3 -36 5 -20
1 -54 5 -75 9 -21 3 -70 9 -109 12 -38 3 -88 8 -110 11 -43 5 -641 13 -647 8z"/>
<path d="M5048 7476 c-13 -5 -52 -22 -88 -38 -36 -17 -81 -31 -100 -33 -161
-15 -307 -112 -372 -245 -53 -110 -51 -79 -52 -1077 l-1 -933 -651 -652 c-647
-649 -675 -679 -700 -763 -2 -5 -6 -21 -10 -35 -9 -28 -10 -195 -2 -225 13
-52 58 -145 69 -145 5 0 9 -6 9 -14 0 -22 108 -114 165 -141 28 -13 70 -29 94
-35 47 -12 206 -11 231 1 8 4 40 19 71 32 57 25 87 45 122 84 11 12 45 30 76
39 133 38 128 34 874 779 386 387 713 716 727 731 29 35 63 104 81 165 10 35
13 264 15 1079 1 992 0 1038 -18 1105 -24 85 -66 156 -126 211 -48 44 -114 84
-138 84 -8 0 -14 4 -14 9 0 21 -216 35 -262 17z"/>
</g>
</svg>
