<?xml version="1.0" standalone="no"?>
<!DOCTYPE svg PUBLIC "-//W3C//DTD SVG 20010904//EN"
 "http://www.w3.org/TR/2001/REC-SVG-20010904/DTD/svg10.dtd">
<svg version="1.0" xmlns="http://www.w3.org/2000/svg"
 width="700.000000pt" height="700.000000pt" viewBox="0 0 700.000000 700.000000"
 preserveAspectRatio="xMidYMid meet">
<metadata>
Created by potrace 1.14, written by Peter Selinger 2001-2017
</metadata>
<g transform="translate(0.000000,700.000000) scale(0.100000,-0.100000)"
fill="#000000" stroke="none">
<path d="M3280 6994 c-19 -2 -84 -9 -145 -14 -578 -56 -1180 -283 -1660 -625
-237 -169 -531 -446 -709 -670 -415 -520 -664 -1125 -748 -1820 -16 -135 -16
-591 0 -730 64 -544 225 -1015 499 -1465 139 -228 284 -412 487 -618 576 -588
1292 -935 2131 -1034 145 -17 576 -17 730 0 664 74 1259 315 1795 728 148 114
479 445 594 594 411 530 654 1132 728 1795 17 155 17 595 -1 740 -69 583 -251
1083 -567 1560 -303 459 -721 847 -1211 1124 -373 211 -838 361 -1288 417
-122 15 -556 27 -635 18z m620 -169 c1111 -139 2059 -797 2575 -1787 189 -364
302 -739 357 -1188 17 -136 17 -564 0 -700 -88 -718 -350 -1321 -800 -1841
-546 -632 -1292 -1028 -2137 -1135 -172 -22 -587 -25 -745 -6 -609 75 -1128
272 -1594 604 -1231 879 -1721 2477 -1196 3896 327 881 1033 1602 1905 1945
331 130 621 196 1025 231 96 8 491 -4 610 -19z"/>
<path d="M3400 6523 c-430 -12 -891 -131 -1278 -330 -826 -426 -1419 -1215
-1592 -2118 -69 -365 -69 -785 0 -1150 218 -1140 1094 -2069 2220 -2355 263
-67 466 -91 755 -91 374 1 696 57 1035 180 419 153 766 377 1096 706 503 502
799 1122 874 1835 15 135 15 465 0 600 -62 587 -281 1126 -642 1582 -106 134
-355 383 -488 488 -569 448 -1250 672 -1980 653z m-370 -2218 l0 -225 -119 0
-119 0 -6 88 c-4 48 -10 102 -13 120 l-5 32 -227 -2 -226 -3 -3 -816 -2 -817
115 -18 115 -18 0 -88 0 -88 -370 0 -371 0 3 87 3 88 113 19 112 19 0 819 0
818 -227 -2 -228 -3 -7 -60 c-4 -33 -10 -86 -14 -117 l-5 -58 -120 0 -119 0 0
225 0 225 860 0 860 0 0 -225z m1002 -435 c141 -360 289 -737 328 -838 40
-101 75 -181 78 -177 3 3 153 380 332 838 l325 832 298 3 298 2 -3 -87 -3 -88
-112 -19 -113 -19 0 -817 0 -817 113 -19 112 -19 3 -87 3 -88 -371 0 -370 0 0
88 0 88 115 18 115 18 1 372 c0 204 6 527 12 719 7 191 10 347 6 347 -3 0 -96
-226 -208 -502 -111 -277 -261 -648 -333 -825 l-130 -323 -93 0 -93 0 -134
333 c-74 182 -224 554 -334 825 -109 270 -201 492 -204 492 -3 0 -2 -87 3
-192 4 -106 11 -429 15 -718 l7 -525 113 -20 112 -19 0 -88 0 -88 -370 0 -371
0 3 87 3 87 104 18 c57 9 110 19 118 22 11 5 13 145 11 818 l-3 813 -115 20
-115 20 -3 88 -3 87 298 -2 298 -3 257 -655z"/>
</g>
</svg>
