<?xml version="1.0" standalone="no"?>
<!DOCTYPE svg PUBLIC "-//W3C//DTD SVG 20010904//EN"
 "http://www.w3.org/TR/2001/REC-SVG-20010904/DTD/svg10.dtd">
<svg version="1.0" xmlns="http://www.w3.org/2000/svg"
 width="700.000000pt" height="700.000000pt" viewBox="0 0 700.000000 700.000000"
 preserveAspectRatio="xMidYMid meet">
<metadata>
Created by potrace 1.14, written by Peter Selinger 2001-2017
</metadata>
<g transform="translate(0.000000,700.000000) scale(0.100000,-0.100000)"
fill="#000000" stroke="none">
<path d="M3285 6994 c-22 -2 -89 -9 -150 -14 -578 -57 -1180 -283 -1660 -625
-244 -174 -554 -470 -729 -695 -410 -528 -643 -1102 -728 -1790 -17 -138 -17
-602 0 -740 73 -592 246 -1074 557 -1550 142 -217 273 -376 477 -577 561 -555
1268 -889 2083 -985 145 -17 576 -17 730 0 511 57 1005 222 1431 479 252 152
436 295 652 507 580 569 923 1267 1028 2091 25 195 25 615 0 810 -90 707 -358
1326 -801 1850 -111 131 -324 342 -451 447 -514 424 -1143 692 -1813 774 -119
14 -540 27 -626 18z m-357 -2516 l2 -278 -144 0 -144 0 -5 43 c-4 23 -9 78
-12 122 -3 44 -8 90 -11 103 l-4 22 -280 0 -280 0 2 -992 3 -992 105 -18 c58
-9 120 -20 138 -23 l32 -6 0 -109 0 -110 -450 0 -450 0 0 109 0 109 73 12 c39
7 101 17 137 24 l65 11 3 993 2 992 -279 0 -278 0 -7 -67 c-3 -38 -9 -103 -12
-145 l-7 -78 -143 0 -144 0 0 280 0 280 1043 -2 1042 -3 3 -277z m1305 -746
c220 -562 404 -1019 409 -1014 5 5 182 451 393 993 212 541 392 999 400 1017
l15 32 355 0 355 0 0 -109 0 -110 -52 -10 c-29 -6 -82 -15 -118 -21 -36 -6
-75 -13 -88 -15 l-22 -5 2 -992 3 -992 105 -18 c58 -9 120 -20 138 -23 l32 -6
0 -109 0 -110 -450 0 -450 0 0 109 0 109 73 12 c39 7 101 17 137 24 l65 11 2
290 c1 160 9 535 18 835 10 300 15 565 13 589 -3 40 -39 -44 -377 -885 -206
-511 -390 -966 -409 -1012 l-34 -83 -112 3 -111 3 -392 970 c-215 534 -399
988 -407 1009 -9 22 -18 37 -21 34 -3 -2 2 -196 11 -429 9 -233 19 -626 23
-873 l6 -450 65 -12 c36 -6 98 -17 138 -24 l72 -12 0 -109 0 -109 -450 0 -450
0 0 109 0 109 93 16 c50 9 112 20 137 24 l45 8 3 992 2 992 -22 5 c-13 2 -66
12 -118 20 -157 25 -140 9 -140 135 l0 110 356 -2 356 -3 401 -1023z"/>
</g>
</svg>
